<svg width="700" height="700" viewBox="0 0 700 700" fill="none" xmlns="http://www.w3.org/2000/svg">
<rect width="700" height="700" fill="#E8B871"/>
<path d="M484.612 552.333C494.153 569.86 495.037 584.489 486.523 594.82C478.738 604.266 465.859 606.248 457.75 606.07C406.617 607.487 295.027 609.515 260.596 606.022C251.083 605.057 243.348 602.375 237.792 597.59C231.997 592.6 229.522 586.143 229.172 579.77C228.601 569.357 233.603 558.873 238.295 551.833V308.411H256.631V365.544C258.576 365.879 260.547 366.05 262.497 366.05C270.845 366.05 277.365 362.438 281.69 358.048C285.586 354.094 288.623 348.509 288.672 343.153H288.674V340.804H286.582C281.518 340.804 277.414 336.7 277.414 331.636C277.414 326.573 281.518 322.468 286.582 322.468H288.674V312.524C288.675 302.472 293.012 296.742 298.351 293.138C304.15 289.225 311.435 287.717 316.221 287.629H466.275V282.74H484.612V552.333ZM461.768 389.089C456.701 389.089 452.592 393.485 452.592 398.907V449.82L452.583 450.822C452.382 461.235 448.998 476.936 437.887 486.886C426.36 497.209 405.313 501.663 367.624 501.941L365.816 501.948L364.008 501.941C326.319 501.663 305.272 497.209 293.745 486.886C282.634 476.936 279.25 461.235 279.049 450.822L279.04 449.82V398.907C279.039 393.485 274.931 389.089 269.864 389.089C264.797 389.089 260.689 393.485 260.689 398.907V449.82L260.703 451.244C260.998 466.071 265.966 487.612 281.965 501.941C297.03 515.432 320.802 520.648 356.871 521.467V563.284H304.918C299.854 563.284 295.75 567.388 295.75 572.452C295.75 577.515 299.854 581.62 304.918 581.62H427.159C432.222 581.619 436.327 577.515 436.327 572.452C436.326 567.388 432.222 563.284 427.159 563.284H375.207V521.457C411.026 520.605 434.664 515.376 449.667 501.941C465.666 487.612 470.634 466.071 470.929 451.244L470.944 449.82V398.907C470.944 393.485 466.836 389.089 461.768 389.089ZM336.725 292.519C314.432 292.519 296.361 297.904 296.361 322.468H344.035C349.098 322.468 353.202 326.573 353.203 331.636C353.203 336.699 349.098 340.804 344.035 340.804H296.361V359.141H344.035C349.098 359.141 353.203 363.246 353.203 368.309C353.203 373.372 349.098 377.477 344.035 377.477H296.361V395.814H344.035C349.098 395.814 353.203 399.918 353.203 404.982C353.202 410.045 349.098 414.15 344.035 414.15H296.361V431.263H344.035C349.098 431.263 353.202 435.368 353.203 440.431C353.203 445.494 349.098 449.599 344.035 449.599H296.491C298.144 471.84 315.525 483.215 336.725 483.215H395.351C416.551 483.215 433.932 471.84 435.585 449.599H385.597C380.534 449.599 376.429 445.494 376.429 440.431C376.429 435.368 380.534 431.263 385.597 431.263H435.716V414.15H385.597C380.534 414.15 376.429 410.045 376.429 404.982C376.429 399.918 380.534 395.814 385.597 395.814H435.716V377.477H385.597C380.534 377.477 376.429 373.372 376.429 368.309C376.429 363.246 380.534 359.141 385.597 359.141H435.716V340.71H385.597C380.534 340.71 376.429 336.606 376.429 331.542C376.429 326.479 380.534 322.374 385.597 322.374H435.715C435.669 297.891 417.615 292.519 395.351 292.519H336.725ZM285.393 116.905C289.096 113.451 294.898 113.654 298.351 117.357L326.116 147.128C329.569 150.831 329.367 156.633 325.664 160.086C321.961 163.539 316.159 163.336 312.706 159.633L284.942 129.863C281.489 126.16 281.69 120.358 285.393 116.905ZM438.613 116.547C441.958 112.746 447.751 112.376 451.552 115.721C455.353 119.066 455.722 124.859 452.377 128.661L425.485 159.221C422.14 163.022 416.347 163.392 412.545 160.047C408.744 156.702 408.375 150.909 411.719 147.108L438.613 116.547ZM368.483 92.0433C373.546 92.0433 377.651 96.148 377.651 101.211V142.774C377.651 147.837 373.546 151.942 368.483 151.942C363.42 151.942 359.315 147.837 359.315 142.774V101.211C359.315 96.148 363.42 92.0433 368.483 92.0433Z" fill="black"/>
<path d="M184.424 334.379C195.119 328.692 207.388 329.771 210.18 329.771H238.296V354.219H210.18C204.417 354.219 199.877 353.852 195.903 355.965C193.73 357.121 188.789 360.615 188.789 376.086V464.496C188.789 479.968 193.73 483.461 195.903 484.617C199.877 486.73 204.417 486.363 210.18 486.363H238.296V510.811H210.18C207.388 510.811 195.119 511.89 184.424 506.203C171.928 499.557 164.34 486.004 164.34 464.496V376.086C164.34 354.578 171.928 341.025 184.424 334.379Z" fill="black"/>
<path d="M273.135 316.356C273.135 299.825 280.902 288.745 290.692 282.128C300.016 275.825 310.882 273.697 318.209 273.573L318.364 273.572H471.303C471.377 273.476 471.453 273.378 471.528 273.277C473.034 271.246 474.808 268.34 475.991 264.789C478.184 258.21 478.788 248.332 468.882 235.886C458.45 222.778 449.317 220.01 442.119 219.938C433.591 219.854 427.126 223.112 418.693 225.54C416.239 226.246 413.602 225.897 411.416 224.576C409.23 223.256 407.694 221.083 407.178 218.582C406.108 213.398 402.845 204.697 396.528 197.478C390.437 190.516 381.579 184.947 368.483 184.947C341.438 184.947 331.463 202.422 328.988 210.777C328.12 213.704 325.854 216.007 322.942 216.921C320.03 217.834 316.854 217.238 314.47 215.332C309.577 211.417 294.845 202.61 276.081 210.51C268.562 213.676 263.623 219.837 260.519 227.108C257.375 234.475 256.464 242.248 256.626 246.974C256.722 249.737 255.565 252.398 253.477 254.211C251.39 256.025 248.594 256.799 245.871 256.318C242.785 255.774 237.771 256.31 233.455 259.007C229.542 261.453 225.726 265.955 224.796 274.557C223.915 282.705 226.878 287.952 230.975 291.317C235.436 294.982 241.595 296.644 246.703 296.219C249.258 296.006 251.785 296.872 253.672 298.607C255.559 300.343 256.632 302.791 256.632 305.355V346.305C256.632 349.973 260.299 352.418 265.189 352.418C270.079 352.418 273.135 349.973 273.135 346.305V316.356ZM469.175 276.05C469.17 276.055 469.165 276.06 469.165 276.06C469.165 276.06 469.171 276.053 469.177 276.047L469.175 276.05ZM291.471 346.434H291.469C291.421 351.695 288.442 357.179 284.621 361.063C280.38 365.374 273.988 368.92 265.8 368.92C252.54 368.92 238.296 360.93 238.296 346.305V314.027C231.614 312.882 224.904 310.061 219.336 305.487C210.597 298.309 205.002 287.053 206.566 272.587C208.09 258.491 214.97 248.936 223.737 243.457C228.558 240.444 233.807 238.752 238.787 238.104C239.497 232.482 241.002 226.126 243.655 219.91C248.014 209.697 255.808 199.151 268.965 193.611C288.632 185.33 305.399 189.59 316.09 194.854C323.677 181.696 339.534 166.611 368.483 166.611C387.659 166.611 401.313 175.1 410.328 185.404C415.902 191.775 419.725 198.84 422.18 205.108C427.789 203.348 434.946 201.53 442.301 201.602C455.731 201.735 469.825 207.625 483.229 224.466C497.16 241.969 497.459 258.373 493.387 270.589C491.438 276.436 488.588 281.055 486.255 284.2C485.08 285.784 484.009 287.032 483.199 287.913C482.794 288.354 482.451 288.707 482.191 288.967C482.06 289.097 481.95 289.205 481.862 289.289C481.819 289.331 481.781 289.366 481.749 289.396C481.733 289.412 481.718 289.426 481.705 289.438C481.698 289.444 481.691 289.449 481.686 289.455C481.683 289.458 481.677 289.463 481.677 289.463C481.673 289.463 481.634 289.424 480.894 288.626L475.445 282.74L481.67 289.47C479.976 291.038 477.752 291.908 475.445 291.908H318.485C313.791 291.994 306.647 293.474 300.96 297.318C295.725 300.857 291.471 306.484 291.471 316.356V346.434Z" fill="black"/>
</svg>
